<svg width="188" height="105" viewBox="0 0 188 105" fill="none" xmlns="http://www.w3.org/2000/svg">
<g clip-path="url(#clip0_178_25)">
<path d="M25 50.5H31.875L52.5 26.96L73.125 50.5H80L55.965 23H49.09L25 50.5ZM31.875 78H45.625V60.84C45.625 59.8867 45.955 59.08 46.615 58.42C47.275 57.76 48.1 57.4117 49.09 57.375H55.965C56.8817 57.375 57.6883 57.7233 58.385 58.42C59.0817 59.1167 59.4117 59.9233 59.375 60.84V78H73.125V54.955L52.5 32.185L31.875 54.955V78ZM69.715 33.505L76.59 41.37V26.465H69.715V33.505Z" fill="#0056B3"/>
</g>
<path d="M94.9355 27.7881V76.2109L53 100.423L11.0645 76.2109V27.7881L53 3.57617L94.9355 27.7881Z" stroke="#7DBBFF"/>
<path d="M97.4668 26.5381V78.4609L52.5 104.423L7.5332 78.4609V26.5381L52.5 0.576172L97.4668 26.5381Z" stroke="#0056B3"/>
<path d="M91 28L107.5 13.5L110 89L91 75V28Z" fill="white"/>
<path d="M87.416 50V41.6H90.56C91.272 41.6 91.884 41.716 92.396 41.948C92.908 42.172 93.3 42.5 93.572 42.932C93.852 43.356 93.992 43.872 93.992 44.48C93.992 45.072 93.852 45.584 93.572 46.016C93.3 46.44 92.908 46.768 92.396 47C91.884 47.232 91.272 47.348 90.56 47.348H87.908L88.304 46.928V50H87.416ZM88.304 47L87.908 46.568H90.536C91.376 46.568 92.012 46.388 92.444 46.028C92.884 45.66 93.104 45.144 93.104 44.48C93.104 43.808 92.884 43.288 92.444 42.92C92.012 42.552 91.376 42.368 90.536 42.368H87.908L88.304 41.948V47ZM98.2675 50.06C97.6115 50.06 97.0355 49.924 96.5395 49.652C96.0435 49.372 95.6555 48.992 95.3755 48.512C95.0955 48.024 94.9555 47.468 94.9555 46.844C94.9555 46.22 95.0875 45.668 95.3515 45.188C95.6235 44.708 95.9915 44.332 96.4555 44.06C96.9275 43.78 97.4555 43.64 98.0395 43.64C98.6315 43.64 99.1555 43.776 99.6115 44.048C100.075 44.312 100.439 44.688 100.703 45.176C100.967 45.656 101.099 46.212 101.099 46.844C101.099 46.884 101.095 46.928 101.087 46.976C101.087 47.016 101.087 47.06 101.087 47.108H95.6035V46.472H100.631L100.295 46.724C100.295 46.268 100.195 45.864 99.9955 45.512C99.8035 45.152 99.5395 44.872 99.2035 44.672C98.8675 44.472 98.4795 44.372 98.0395 44.372C97.6075 44.372 97.2195 44.472 96.8755 44.672C96.5315 44.872 96.2635 45.152 96.0715 45.512C95.8795 45.872 95.7835 46.284 95.7835 46.748V46.88C95.7835 47.36 95.8875 47.784 96.0955 48.152C96.3115 48.512 96.6075 48.796 96.9835 49.004C97.3675 49.204 97.8035 49.304 98.2915 49.304C98.6755 49.304 99.0315 49.236 99.3595 49.1C99.6955 48.964 99.9835 48.756 100.223 48.476L100.703 49.028C100.423 49.364 100.071 49.62 99.6475 49.796C99.2315 49.972 98.7715 50.06 98.2675 50.06ZM102.985 50V43.7H103.849L106.705 48.536H106.345L109.249 43.7H110.041V50H109.261V44.672L109.417 44.744L106.705 49.232H106.321L103.585 44.696L103.765 44.66V50H102.985ZM115.058 50.06C114.45 50.06 113.902 49.924 113.414 49.652C112.934 49.372 112.554 48.992 112.274 48.512C111.994 48.024 111.854 47.468 111.854 46.844C111.854 46.212 111.994 45.656 112.274 45.176C112.554 44.696 112.934 44.32 113.414 44.048C113.894 43.776 114.442 43.64 115.058 43.64C115.682 43.64 116.234 43.776 116.714 44.048C117.202 44.32 117.582 44.696 117.854 45.176C118.134 45.656 118.274 46.212 118.274 46.844C118.274 47.468 118.134 48.024 117.854 48.512C117.582 48.992 117.202 49.372 116.714 49.652C116.226 49.924 115.674 50.06 115.058 50.06ZM115.058 49.304C115.514 49.304 115.918 49.204 116.27 49.004C116.622 48.796 116.898 48.508 117.098 48.14C117.306 47.764 117.41 47.332 117.41 46.844C117.41 46.348 117.306 45.916 117.098 45.548C116.898 45.18 116.622 44.896 116.27 44.696C115.918 44.488 115.518 44.384 115.07 44.384C114.622 44.384 114.222 44.488 113.87 44.696C113.518 44.896 113.238 45.18 113.03 45.548C112.822 45.916 112.718 46.348 112.718 46.844C112.718 47.332 112.822 47.764 113.03 48.14C113.238 48.508 113.518 48.796 113.87 49.004C114.222 49.204 114.618 49.304 115.058 49.304ZM120.095 50V43.7H120.947V46.484H124.919V43.7H125.771V50H124.919V47.216H120.947V50H120.095ZM129.392 50V44.216L129.608 44.444H127.004V43.7H132.632V44.444H130.028L130.244 44.216V50H129.392ZM141.625 50L139.033 46.88L139.741 46.46L142.633 50H141.625ZM137.005 50V43.7H137.857V50H137.005ZM137.593 47.192V46.46H139.621V47.192H137.593ZM139.813 46.94L139.021 46.82L141.529 43.7H142.453L139.813 46.94ZM143.978 50V43.7H146.762C147.474 43.7 148.034 43.836 148.442 44.108C148.858 44.38 149.066 44.78 149.066 45.308C149.066 45.82 148.87 46.216 148.478 46.496C148.086 46.768 147.57 46.904 146.93 46.904L147.098 46.652C147.85 46.652 148.402 46.792 148.754 47.072C149.106 47.352 149.282 47.756 149.282 48.284C149.282 48.828 149.082 49.252 148.682 49.556C148.29 49.852 147.678 50 146.846 50H143.978ZM144.806 49.328H146.81C147.346 49.328 147.75 49.244 148.022 49.076C148.302 48.9 148.442 48.62 148.442 48.236C148.442 47.852 148.318 47.572 148.07 47.396C147.822 47.22 147.43 47.132 146.894 47.132H144.806V49.328ZM144.806 46.496H146.702C147.19 46.496 147.562 46.404 147.818 46.22C148.082 46.036 148.214 45.768 148.214 45.416C148.214 45.064 148.082 44.8 147.818 44.624C147.562 44.448 147.19 44.36 146.702 44.36H144.806V46.496ZM155.19 50V48.608L155.154 48.38V46.052C155.154 45.516 155.002 45.104 154.698 44.816C154.402 44.528 153.958 44.384 153.366 44.384C152.958 44.384 152.57 44.452 152.202 44.588C151.834 44.724 151.522 44.904 151.266 45.128L150.882 44.492C151.202 44.22 151.586 44.012 152.034 43.868C152.482 43.716 152.954 43.64 153.45 43.64C154.266 43.64 154.894 43.844 155.334 44.252C155.782 44.652 156.006 45.264 156.006 46.088V50H155.19ZM153.018 50.06C152.546 50.06 152.134 49.984 151.782 49.832C151.438 49.672 151.174 49.456 150.99 49.184C150.806 48.904 150.714 48.584 150.714 48.224C150.714 47.896 150.79 47.6 150.942 47.336C151.102 47.064 151.358 46.848 151.71 46.688C152.07 46.52 152.55 46.436 153.15 46.436H155.322V47.072H153.174C152.566 47.072 152.142 47.18 151.902 47.396C151.67 47.612 151.554 47.88 151.554 48.2C151.554 48.56 151.694 48.848 151.974 49.064C152.254 49.28 152.646 49.388 153.15 49.388C153.63 49.388 154.042 49.28 154.386 49.064C154.738 48.84 154.994 48.52 155.154 48.104L155.346 48.692C155.186 49.108 154.906 49.44 154.506 49.688C154.114 49.936 153.618 50.06 153.018 50.06ZM161.527 50.06C160.983 50.06 160.491 49.936 160.051 49.688C159.611 49.432 159.259 49.068 158.995 48.596C158.739 48.116 158.611 47.532 158.611 46.844C158.611 46.156 158.739 45.576 158.995 45.104C159.251 44.624 159.599 44.26 160.039 44.012C160.479 43.764 160.975 43.64 161.527 43.64C162.127 43.64 162.663 43.776 163.135 44.048C163.615 44.312 163.991 44.688 164.263 45.176C164.535 45.656 164.671 46.212 164.671 46.844C164.671 47.484 164.535 48.044 164.263 48.524C163.991 49.004 163.615 49.38 163.135 49.652C162.663 49.924 162.127 50.06 161.527 50.06ZM158.275 52.328V43.7H159.091V45.596L159.007 46.856L159.127 48.128V52.328H158.275ZM161.467 49.304C161.915 49.304 162.315 49.204 162.667 49.004C163.019 48.796 163.299 48.508 163.507 48.14C163.715 47.764 163.819 47.332 163.819 46.844C163.819 46.356 163.715 45.928 163.507 45.56C163.299 45.192 163.019 44.904 162.667 44.696C162.315 44.488 161.915 44.384 161.467 44.384C161.019 44.384 160.615 44.488 160.255 44.696C159.903 44.904 159.623 45.192 159.415 45.56C159.215 45.928 159.115 46.356 159.115 46.844C159.115 47.332 159.215 47.764 159.415 48.14C159.623 48.508 159.903 48.796 160.255 49.004C160.615 49.204 161.019 49.304 161.467 49.304ZM167.467 50V44.216L167.683 44.444H165.079V43.7H170.707V44.444H168.103L168.319 44.216V50H167.467ZM171.939 50V43.7H172.791V48.704L177.003 43.7H177.759V50H176.907V44.984L172.707 50H171.939ZM183.452 50.06C182.908 50.06 182.416 49.936 181.976 49.688C181.536 49.432 181.184 49.068 180.92 48.596C180.664 48.116 180.536 47.532 180.536 46.844C180.536 46.156 180.664 45.576 180.92 45.104C181.176 44.624 181.524 44.26 181.964 44.012C182.404 43.764 182.9 43.64 183.452 43.64C184.052 43.64 184.588 43.776 185.06 44.048C185.54 44.312 185.916 44.688 186.188 45.176C186.46 45.656 186.596 46.212 186.596 46.844C186.596 47.484 186.46 48.044 186.188 48.524C185.916 49.004 185.54 49.38 185.06 49.652C184.588 49.924 184.052 50.06 183.452 50.06ZM180.2 52.328V43.7H181.016V45.596L180.932 46.856L181.052 48.128V52.328H180.2ZM183.392 49.304C183.84 49.304 184.24 49.204 184.592 49.004C184.944 48.796 185.224 48.508 185.432 48.14C185.64 47.764 185.744 47.332 185.744 46.844C185.744 46.356 185.64 45.928 185.432 45.56C185.224 45.192 184.944 44.904 184.592 44.696C184.24 44.488 183.84 44.384 183.392 44.384C182.944 44.384 182.54 44.488 182.18 44.696C181.828 44.904 181.548 45.192 181.34 45.56C181.14 45.928 181.04 46.356 181.04 46.844C181.04 47.332 181.14 47.764 181.34 48.14C181.548 48.508 181.828 48.796 182.18 49.004C182.54 49.204 182.944 49.304 183.392 49.304ZM87.212 63V56.7H92.876V63H92.024V57.216L92.24 57.444H87.848L88.064 57.216V63H87.212ZM97.8899 63.06C97.2819 63.06 96.7339 62.924 96.2459 62.652C95.7659 62.372 95.3859 61.992 95.1059 61.512C94.8259 61.024 94.6859 60.468 94.6859 59.844C94.6859 59.212 94.8259 58.656 95.1059 58.176C95.3859 57.696 95.7659 57.32 96.2459 57.048C96.7259 56.776 97.2739 56.64 97.8899 56.64C98.5139 56.64 99.0659 56.776 99.5459 57.048C100.034 57.32 100.414 57.696 100.686 58.176C100.966 58.656 101.106 59.212 101.106 59.844C101.106 60.468 100.966 61.024 100.686 61.512C100.414 61.992 100.034 62.372 99.5459 62.652C99.0579 62.924 98.5059 63.06 97.8899 63.06ZM97.8899 62.304C98.3459 62.304 98.7499 62.204 99.1019 62.004C99.4539 61.796 99.7299 61.508 99.9299 61.14C100.138 60.764 100.242 60.332 100.242 59.844C100.242 59.348 100.138 58.916 99.9299 58.548C99.7299 58.18 99.4539 57.896 99.1019 57.696C98.7499 57.488 98.3499 57.384 97.9019 57.384C97.4539 57.384 97.0539 57.488 96.7019 57.696C96.3499 57.896 96.0699 58.18 95.8619 58.548C95.6539 58.916 95.5499 59.348 95.5499 59.844C95.5499 60.332 95.6539 60.764 95.8619 61.14C96.0699 61.508 96.3499 61.796 96.7019 62.004C97.0539 62.204 97.4499 62.304 97.8899 62.304ZM107.212 62.592V57.444H104.176L104.104 58.848C104.088 59.272 104.06 59.688 104.02 60.096C103.988 60.504 103.928 60.88 103.84 61.224C103.76 61.56 103.644 61.836 103.492 62.052C103.34 62.26 103.144 62.38 102.904 62.412L102.052 62.256C102.3 62.264 102.504 62.176 102.664 61.992C102.824 61.8 102.948 61.54 103.036 61.212C103.124 60.884 103.188 60.512 103.228 60.096C103.268 59.672 103.3 59.24 103.324 58.8L103.408 56.7H108.064V62.592H107.212ZM101.788 64.524V62.256H109.048V64.524H108.244V63H102.592V64.524H101.788ZM118.469 63L115.877 59.88L116.585 59.46L119.477 63H118.469ZM113.849 63V56.7H114.701V63H113.849ZM114.437 60.192V59.46H116.465V60.192H114.437ZM116.657 59.94L115.865 59.82L118.373 56.7H119.297L116.657 59.94ZM119.669 62.988L119.729 62.256C119.785 62.264 119.837 62.276 119.885 62.292C119.941 62.3 119.989 62.304 120.029 62.304C120.285 62.304 120.489 62.208 120.641 62.016C120.801 61.824 120.921 61.568 121.001 61.248C121.081 60.928 121.137 60.568 121.169 60.168C121.201 59.76 121.229 59.352 121.253 58.944L121.361 56.7H125.981V63H125.129V57.192L125.345 57.444H121.913L122.117 57.18L122.021 59.004C121.997 59.548 121.953 60.068 121.889 60.564C121.833 61.06 121.741 61.496 121.613 61.872C121.493 62.248 121.325 62.544 121.109 62.76C120.893 62.968 120.617 63.072 120.281 63.072C120.185 63.072 120.085 63.064 119.981 63.048C119.885 63.032 119.781 63.012 119.669 62.988ZM128.403 63V56.7H129.255V59.412H131.175V60.192H129.255V63H128.403ZM133.827 63.06C133.227 63.06 132.687 62.924 132.207 62.652C131.735 62.372 131.363 61.992 131.091 61.512C130.819 61.024 130.683 60.468 130.683 59.844C130.683 59.212 130.819 58.656 131.091 58.176C131.363 57.696 131.735 57.32 132.207 57.048C132.687 56.776 133.227 56.64 133.827 56.64C134.427 56.64 134.963 56.776 135.435 57.048C135.907 57.32 136.279 57.696 136.551 58.176C136.823 58.656 136.959 59.212 136.959 59.844C136.959 60.468 136.823 61.024 136.551 61.512C136.279 61.992 135.907 62.372 135.435 62.652C134.963 62.924 134.427 63.06 133.827 63.06ZM133.827 62.316C134.267 62.316 134.659 62.212 135.003 62.004C135.347 61.796 135.619 61.508 135.819 61.14C136.019 60.764 136.119 60.332 136.119 59.844C136.119 59.348 136.019 58.916 135.819 58.548C135.619 58.18 135.347 57.896 135.003 57.696C134.659 57.488 134.267 57.384 133.827 57.384C133.395 57.384 133.003 57.488 132.651 57.696C132.307 57.896 132.035 58.18 131.835 58.548C131.635 58.916 131.535 59.348 131.535 59.844C131.535 60.332 131.635 60.764 131.835 61.14C132.035 61.508 132.307 61.796 132.651 62.004C133.003 62.212 133.395 62.316 133.827 62.316ZM142.77 60.336C142.402 60.496 142.03 60.624 141.654 60.72C141.286 60.808 140.918 60.852 140.55 60.852C139.806 60.852 139.218 60.684 138.786 60.348C138.354 60.004 138.138 59.476 138.138 58.764V56.7H138.978V58.716C138.978 59.196 139.134 59.556 139.446 59.796C139.758 60.036 140.178 60.156 140.706 60.156C141.026 60.156 141.362 60.116 141.714 60.036C142.066 59.948 142.422 59.824 142.782 59.664L142.77 60.336ZM142.698 63V56.7H143.55V63H142.698Z" fill="black"/>
<defs>
<clipPath id="clip0_178_25">
<rect width="55" height="55" fill="white" transform="translate(25 23)"/>
</clipPath>
</defs>
</svg>
